<svg width="409" height="595" viewBox="0 0 409 595" fill="none" xmlns="http://www.w3.org/2000/svg">
<g clip-path="url(#clip0_48_1665)">
<path d="M398.399 465.1L204.499 582.7L10.6992 465.1V19.0996L43.4992 38.9996V442.2L204.499 539.9L365.499 442.2V38.9996L398.399 19.0996V465.1Z" fill="white"/>
<path d="M54.2992 45.4996L67.8992 53.7996L142.299 96.0996L95.2992 53.4996C96.1992 52.8996 96.9992 52.3996 97.7992 51.6996L107.699 43.4996C108.699 42.6996 109.799 41.9996 110.999 41.4996C112.999 40.5996 115.099 40.0996 117.299 40.0996H291.399C293.599 40.0996 295.799 40.5996 297.699 41.4996C298.899 41.9996 299.999 42.6996 300.999 43.4996L310.899 51.6996C311.699 52.3996 312.599 52.9996 313.499 53.4996L266.899 96.0996L341.299 53.7996H341.199L354.799 45.4996V436.1L204.499 527.3L54.1992 436.1V45.4996H54.2992Z" fill="white"/>
<path d="M335.6 44.6C330.1 47.9 323 47.4 318 43.3L308.1 35.1C307.3 34.4 306.4 33.8 305.4 33.2C301.3 30.6 296.5 29.2 291.6 29.2H117.5C112.6 29.2 107.8 30.6 103.7 33.2C102.8 33.8 101.9 34.4 101 35.1L91.1 43.3C86.1 47.4 79.1 47.9 73.5 44.6L0 0V471.1L204.6 595.3L409.2 471.1V0L335.6 44.6ZM67.9 53.8L142.3 96.1L95.3 53.5C96.2 52.9 97 52.4 97.8 51.7L107.7 43.5C108.7 42.7 109.8 42 111 41.5C113 40.6 115.1 40.1 117.3 40.1H291.4C293.6 40.1 295.8 40.6 297.7 41.5C298.9 42 300 42.7 301 43.5L310.9 51.7C311.7 52.4 312.6 53 313.5 53.5L266.9 96.1L341.3 53.8H341.2L354.8 45.5V375.4H54.3V45.5L67.9 53.8ZM398.4 465.1L204.5 582.7L10.7 465.1V19.1L43.5 39V442.2L204.5 539.9L365.5 442.2V39L398.3 19.1V465.1H398.4Z" fill="url(#paint0_linear_48_1665)"/>
<path d="M335.898 353H73.8984V359H335.898V353Z" fill="url(#paint1_linear_48_1665)"/>
<path d="M335.898 235H73.8984V242H335.898V235Z" fill="url(#paint2_linear_48_1665)"/>
<path d="M254.995 176.784V177.649C254.995 199.471 237.082 216 212.91 216H166.185V166.305L178.379 171.707V205.737H213.018C229.744 205.737 242.262 194.826 243.017 179.593C247.442 179.053 251.434 178.081 254.995 176.784ZM266.11 157.555C254.348 170.411 227.154 173.111 191.868 162.74C156.689 152.369 135.43 132.924 138.128 122.877C140.826 112.722 164.566 115.206 164.566 115.206C164.566 115.206 169.206 99.8658 171.904 89.4948C174.926 78.0434 204.925 87.4422 215.824 93.8161C212.802 91.1153 210.428 88.9546 208.378 87.2261C207.407 86.4699 207.623 84.9574 208.81 84.4173C212.371 82.6888 216.04 80.6362 223.485 83.2289C236.327 87.5502 241.183 106.132 250.463 126.658C266.434 126.982 277.764 144.699 266.11 157.555ZM243.988 124.497L241.291 118.015C240.859 116.827 239.456 116.287 238.269 116.935C233.089 119.852 224.996 123.741 211.615 122.877C196.616 121.904 182.587 114.45 173.847 109.481C172.66 108.832 171.149 109.373 170.825 110.669C170.178 112.722 169.746 114.342 169.422 115.314C169.206 116.179 169.53 116.935 170.178 117.475C174.494 120.824 191.76 133.248 212.479 134.652C231.902 136.056 240.751 129.359 243.449 126.658C244.204 126.226 244.312 125.361 243.988 124.497Z" fill="url(#paint3_linear_48_1665)"/>
<path d="M110.848 333H98.64C92.7413 333 88.1867 331.432 84.976 328.296C81.7653 325.16 80.16 320.643 80.16 314.744V279.24C80.16 273.341 81.7653 268.824 84.976 265.688C88.1867 262.552 92.7413 260.984 98.64 260.984H110.848C116.672 260.984 121.189 262.589 124.4 265.8C127.685 268.936 129.328 273.416 129.328 279.24V284.504C129.328 286.147 128.507 286.968 126.864 286.968H117.456C115.888 286.968 115.104 286.147 115.104 284.504V279.912C115.104 277.523 114.581 275.843 113.536 274.872C112.565 273.827 110.885 273.304 108.496 273.304H100.88C98.5653 273.304 96.8853 273.827 95.84 274.872C94.8693 275.843 94.384 277.523 94.384 279.912V314.072C94.384 316.461 94.8693 318.179 95.84 319.224C96.8853 320.195 98.5653 320.68 100.88 320.68H108.496C110.885 320.68 112.565 320.195 113.536 319.224C114.581 318.179 115.104 316.461 115.104 314.072V309.48C115.104 307.837 115.888 307.016 117.456 307.016H126.864C128.507 307.016 129.328 307.837 129.328 309.48V314.744C129.328 320.568 127.685 325.085 124.4 328.296C121.189 331.432 116.672 333 110.848 333ZM171.114 333H158.906C153.007 333 148.452 331.432 145.242 328.296C142.031 325.16 140.426 320.643 140.426 314.744V279.24C140.426 273.341 142.031 268.824 145.242 265.688C148.452 262.552 153.007 260.984 158.906 260.984H171.114C176.938 260.984 181.455 262.589 184.666 265.8C187.951 268.936 189.594 273.416 189.594 279.24V284.504C189.594 286.147 188.772 286.968 187.13 286.968H177.722C176.154 286.968 175.37 286.147 175.37 284.504V279.912C175.37 277.523 174.847 275.843 173.802 274.872C172.831 273.827 171.151 273.304 168.762 273.304H161.146C158.831 273.304 157.151 273.827 156.106 274.872C155.135 275.843 154.65 277.523 154.65 279.912V314.072C154.65 316.461 155.135 318.179 156.106 319.224C157.151 320.195 158.831 320.68 161.146 320.68H168.762C171.151 320.68 172.831 320.195 173.802 319.224C174.847 318.179 175.37 316.461 175.37 314.072V309.48C175.37 307.837 176.154 307.016 177.722 307.016H187.13C188.772 307.016 189.594 307.837 189.594 309.48V314.744C189.594 320.568 187.951 325.085 184.666 328.296C181.455 331.432 176.938 333 171.114 333ZM217.267 320.68H229.475C231.865 320.68 233.545 320.195 234.515 319.224C235.561 318.179 236.083 316.461 236.083 314.072V279.912C236.083 277.523 235.561 275.843 234.515 274.872C233.545 273.827 231.865 273.304 229.475 273.304H217.267C216.446 273.304 216.035 273.715 216.035 274.536V319.448C216.035 320.269 216.446 320.68 217.267 320.68ZM201.811 330.648V263.336C201.811 261.768 202.595 260.984 204.163 260.984H231.827C237.651 260.984 242.169 262.589 245.379 265.8C248.665 268.936 250.307 273.416 250.307 279.24V314.744C250.307 320.568 248.665 325.085 245.379 328.296C242.169 331.432 237.651 333 231.827 333H204.163C202.595 333 201.811 332.216 201.811 330.648Z" fill="url(#paint4_linear_48_1665)"/>
<path d="M284.576 281.032V271.848C284.576 270.579 285.136 269.608 286.256 268.936L296.448 262.552C298.165 261.507 299.621 260.984 300.816 260.984H309.776C311.344 260.984 312.128 261.768 312.128 263.336V330.648C312.128 331.544 311.941 332.179 311.568 332.552C311.269 332.851 310.709 333 309.888 333H300.256C298.688 333 297.904 332.216 297.904 330.648V276.104L286.928 282.376C285.36 283.048 284.576 282.6 284.576 281.032Z" fill="url(#paint5_linear_48_1665)"/>
<path d="M272.224 319.352C272.224 320.173 272.672 320.584 273.568 320.584H282.5V330.018C282.5 331.675 281.157 333.016 279.5 333.016H260.352C258.784 333.016 258 332.232 258 330.664V263.352C258 261.784 258.784 261 260.352 261H269.872C271.44 261 272.224 261.784 272.224 263.352V319.352Z" fill="url(#paint6_linear_48_1665)"/>
<path d="M208.337 473.833L204.49 461.166L200.642 473.833H188.656L198.441 480.815L194.72 492.833L204.49 485.407L214.275 492.833L210.554 480.815L220.323 473.833H208.337Z" fill="#FFD694"/>
<path d="M64.87 443H61.6C60.02 443 58.8 442.58 57.94 441.74C57.08 440.9 56.65 439.69 56.65 438.11V428.6C56.65 427.02 57.08 425.81 57.94 424.97C58.8 424.13 60.02 423.71 61.6 423.71H64.87C66.43 423.71 67.64 424.14 68.5 425C69.38 425.84 69.82 427.04 69.82 428.6V430.01C69.82 430.45 69.6 430.67 69.16 430.67H66.64C66.22 430.67 66.01 430.45 66.01 430.01V428.78C66.01 428.14 65.87 427.69 65.59 427.43C65.33 427.15 64.88 427.01 64.24 427.01H62.2C61.58 427.01 61.13 427.15 60.85 427.43C60.59 427.69 60.46 428.14 60.46 428.78V437.93C60.46 438.57 60.59 439.03 60.85 439.31C61.13 439.57 61.58 439.7 62.2 439.7H64.24C64.88 439.7 65.33 439.57 65.59 439.31C65.87 439.03 66.01 438.57 66.01 437.93V436.7C66.01 436.26 66.22 436.04 66.64 436.04H69.16C69.6 436.04 69.82 436.26 69.82 436.7V438.11C69.82 439.67 69.38 440.88 68.5 441.74C67.64 442.58 66.43 443 64.87 443ZM84.0726 443H77.4426C75.8626 443 74.6426 442.58 73.7826 441.74C72.9226 440.9 72.4926 439.69 72.4926 438.11V432.59C72.4926 431.01 72.9226 429.8 73.7826 428.96C74.6426 428.12 75.8626 427.7 77.4426 427.7H79.8126C81.3926 427.7 82.6126 428.12 83.4726 428.96C84.3326 429.8 84.7626 431.01 84.7626 432.59V436.4C84.7626 436.82 84.5526 437.03 84.1326 437.03H76.6026C76.3626 437.03 76.2426 437.14 76.2426 437.36V438.02C76.2426 438.64 76.3726 439.09 76.6326 439.37C76.9126 439.63 77.3726 439.76 78.0126 439.76H84.0726C84.4926 439.76 84.7026 439.98 84.7026 440.42V442.4C84.7026 442.62 84.6526 442.78 84.5526 442.88C84.4726 442.96 84.3126 443 84.0726 443ZM76.6026 434.48H80.6826C80.9026 434.48 81.0126 434.37 81.0126 434.15V432.71C81.0126 432.07 80.8826 431.62 80.6226 431.36C80.3626 431.1 79.9126 430.97 79.2726 430.97H78.0126C77.3726 430.97 76.9226 431.1 76.6626 431.36C76.4026 431.62 76.2726 432.07 76.2726 432.71V434.15C76.2726 434.37 76.3826 434.48 76.6026 434.48ZM90.7968 443H88.2468C87.8268 443 87.6168 442.79 87.6168 442.37V428.33C87.6168 427.91 87.8268 427.7 88.2468 427.7H90.7968C91.2168 427.7 91.4268 427.91 91.4268 428.33V429.35H91.5468C91.7668 428.81 92.1568 428.4 92.7168 428.12C93.2768 427.84 93.8668 427.7 94.4868 427.7H95.5668C95.9668 427.7 96.1668 427.91 96.1668 428.33V430.4C96.1668 430.64 96.1168 430.81 96.0168 430.91C95.9368 430.99 95.7868 431.02 95.5668 431H93.4968C92.1168 431 91.4268 431.78 91.4268 433.34V442.37C91.4268 442.79 91.2168 443 90.7968 443ZM98.4058 431H97.2058C96.9658 431 96.7958 430.96 96.6958 430.88C96.6158 430.8 96.5758 430.64 96.5758 430.4V428.33C96.5758 427.91 96.7858 427.7 97.2058 427.7H98.4058C98.6258 427.7 98.7358 427.59 98.7358 427.37V424.52C98.7358 424.1 98.9558 423.89 99.3958 423.89H101.916C102.336 423.89 102.546 424.1 102.546 424.52V427.37C102.546 427.59 102.666 427.7 102.906 427.7H105.246C105.666 427.7 105.876 427.91 105.876 428.33V430.4C105.876 430.62 105.826 430.78 105.726 430.88C105.646 430.96 105.486 431 105.246 431H102.906C102.666 431 102.546 431.11 102.546 431.33V437.96C102.546 438.58 102.686 439.03 102.966 439.31C103.246 439.57 103.706 439.7 104.346 439.7H105.546C105.966 439.7 106.176 439.91 106.176 440.33V442.4C106.176 442.62 106.126 442.78 106.026 442.88C105.946 442.96 105.786 443 105.546 443H103.716C102.136 443 100.906 442.58 100.026 441.74C99.1658 440.9 98.7358 439.7 98.7358 438.14V431.33C98.7358 431.11 98.6258 431 98.4058 431ZM108.802 425.12V422.51C108.802 422.11 109.002 421.91 109.402 421.91H112.012C112.412 421.91 112.612 422.1 112.612 422.48V425.12C112.612 425.52 112.412 425.72 112.012 425.72H109.402C109.002 425.72 108.802 425.52 108.802 425.12ZM108.802 442.37V428.33C108.802 427.91 109.002 427.7 109.402 427.7H111.982C112.402 427.7 112.612 427.91 112.612 428.33V442.37C112.612 442.63 112.562 442.8 112.462 442.88C112.382 442.96 112.232 443 112.012 443H109.432C109.012 443 108.802 442.79 108.802 442.37ZM121.614 427.7H124.014C124.254 427.7 124.414 427.75 124.494 427.85C124.594 427.93 124.644 428.08 124.644 428.3V430.37C124.644 430.79 124.434 431 124.014 431H121.614C121.394 431 121.284 431.11 121.284 431.33V442.37C121.284 442.79 121.064 443 120.624 443H118.104C117.684 443 117.474 442.79 117.474 442.37V431.33C117.474 431.11 117.354 431 117.114 431H115.734C115.314 431 115.104 430.79 115.104 430.37V428.3C115.104 428.06 115.144 427.9 115.224 427.82C115.324 427.74 115.494 427.7 115.734 427.7H117.114C117.354 427.7 117.474 427.59 117.474 427.37V426.8C117.474 425.22 117.884 424.01 118.704 423.17C119.544 422.33 120.754 421.91 122.334 421.91H124.044C124.284 421.91 124.444 421.96 124.524 422.06C124.604 422.14 124.644 422.29 124.644 422.51V424.58C124.644 425 124.444 425.21 124.044 425.21H122.934C122.294 425.21 121.854 425.35 121.614 425.63C121.394 425.89 121.284 426.34 121.284 426.98V427.37C121.284 427.59 121.394 427.7 121.614 427.7ZM126.82 425.12V422.51C126.82 422.11 127.02 421.91 127.42 421.91H130.03C130.43 421.91 130.63 422.1 130.63 422.48V425.12C130.63 425.52 130.43 425.72 130.03 425.72H127.42C127.02 425.72 126.82 425.52 126.82 425.12ZM126.82 442.37V428.33C126.82 427.91 127.02 427.7 127.42 427.7H130C130.42 427.7 130.63 427.91 130.63 428.33V442.37C130.63 442.63 130.58 442.8 130.48 442.88C130.4 442.96 130.25 443 130.03 443H127.45C127.03 443 126.82 442.79 126.82 442.37ZM145.362 443H138.732C137.152 443 135.932 442.58 135.072 441.74C134.212 440.9 133.782 439.69 133.782 438.11V432.59C133.782 431.01 134.212 429.8 135.072 428.96C135.932 428.12 137.152 427.7 138.732 427.7H141.102C142.682 427.7 143.902 428.12 144.762 428.96C145.622 429.8 146.052 431.01 146.052 432.59V436.4C146.052 436.82 145.842 437.03 145.422 437.03H137.892C137.652 437.03 137.532 437.14 137.532 437.36V438.02C137.532 438.64 137.662 439.09 137.922 439.37C138.202 439.63 138.662 439.76 139.302 439.76H145.362C145.782 439.76 145.992 439.98 145.992 440.42V442.4C145.992 442.62 145.942 442.78 145.842 442.88C145.762 442.96 145.602 443 145.362 443ZM137.892 434.48H141.972C142.192 434.48 142.302 434.37 142.302 434.15V432.71C142.302 432.07 142.172 431.62 141.912 431.36C141.652 431.1 141.202 430.97 140.562 430.97H139.302C138.662 430.97 138.212 431.1 137.952 431.36C137.692 431.62 137.562 432.07 137.562 432.71V434.15C137.562 434.37 137.672 434.48 137.892 434.48ZM154.516 443H153.286C151.746 443 150.576 442.58 149.776 441.74C148.996 440.9 148.606 439.69 148.606 438.11V432.59C148.606 431.01 148.996 429.8 149.776 428.96C150.576 428.12 151.746 427.7 153.286 427.7H154.516C155.136 427.7 155.726 427.84 156.286 428.12C156.846 428.38 157.236 428.78 157.456 429.32H157.576V422.54C157.576 422.12 157.786 421.91 158.206 421.91H160.756C161.176 421.91 161.386 422.12 161.386 422.54V442.37C161.386 442.79 161.176 443 160.756 443H158.206C157.786 443 157.576 442.79 157.576 442.37V441.38H157.456C157.236 441.92 156.846 442.33 156.286 442.61C155.726 442.87 155.136 443 154.516 443ZM157.576 437.42V433.28C157.576 431.76 156.886 431 155.506 431H154.156C153.516 431 153.066 431.14 152.806 431.42C152.546 431.68 152.416 432.13 152.416 432.77V437.93C152.416 438.57 152.546 439.03 152.806 439.31C153.066 439.57 153.516 439.7 154.156 439.7H155.506C156.886 439.7 157.576 438.94 157.576 437.42ZM179.509 443H176.239C174.659 443 173.439 442.58 172.579 441.74C171.719 440.9 171.289 439.69 171.289 438.11V428.6C171.289 427.02 171.719 425.81 172.579 424.97C173.439 424.13 174.659 423.71 176.239 423.71H179.509C181.069 423.71 182.279 424.14 183.139 425C184.019 425.84 184.459 427.04 184.459 428.6V430.01C184.459 430.45 184.239 430.67 183.799 430.67H181.279C180.859 430.67 180.649 430.45 180.649 430.01V428.78C180.649 428.14 180.509 427.69 180.229 427.43C179.969 427.15 179.519 427.01 178.879 427.01H176.839C176.219 427.01 175.769 427.15 175.489 427.43C175.229 427.69 175.099 428.14 175.099 428.78V437.93C175.099 438.57 175.229 439.03 175.489 439.31C175.769 439.57 176.219 439.7 176.839 439.7H178.879C179.519 439.7 179.969 439.57 180.229 439.31C180.509 439.03 180.649 438.57 180.649 437.93V436.7C180.649 436.26 180.859 436.04 181.279 436.04H183.799C184.239 436.04 184.459 436.26 184.459 436.7V438.11C184.459 439.67 184.019 440.88 183.139 441.74C182.279 442.58 181.069 443 179.509 443ZM189.921 448.07H188.001C187.601 448.07 187.401 447.85 187.401 447.41V445.4C187.401 444.96 187.601 444.74 188.001 444.74H188.631C189.891 444.74 190.741 444.56 191.181 444.2C191.641 443.86 191.991 443.19 192.231 442.19H190.641C190.261 442.19 190.011 441.98 189.891 441.56L186.381 428.33C186.261 427.91 186.411 427.7 186.831 427.7H189.501C189.901 427.7 190.151 427.91 190.251 428.33L192.831 439.4H192.951L195.501 428.33C195.581 427.91 195.831 427.7 196.251 427.7H198.771C199.271 427.7 199.471 427.92 199.371 428.36L195.711 443C195.271 444.66 194.591 445.92 193.671 446.78C192.751 447.64 191.501 448.07 189.921 448.07ZM205.692 439.7H208.752C209.392 439.7 209.842 439.57 210.102 439.31C210.382 439.03 210.522 438.57 210.522 437.93V432.71C210.522 432.07 210.382 431.62 210.102 431.36C209.842 431.08 209.392 430.94 208.752 430.94H207.432C206.052 430.94 205.362 431.7 205.362 433.22V439.37C205.362 439.59 205.472 439.7 205.692 439.7ZM201.552 442.37V422.54C201.552 422.12 201.762 421.91 202.182 421.91H204.732C205.152 421.91 205.362 422.12 205.362 422.54V429.29H205.482C205.702 428.75 206.092 428.34 206.652 428.06C207.212 427.78 207.802 427.64 208.422 427.64H209.382C210.962 427.64 212.182 428.06 213.042 428.9C213.902 429.74 214.332 430.95 214.332 432.53V438.11C214.332 439.69 213.902 440.9 213.042 441.74C212.182 442.58 210.962 443 209.382 443H202.182C201.762 443 201.552 442.79 201.552 442.37ZM228.623 443H221.993C220.413 443 219.193 442.58 218.333 441.74C217.473 440.9 217.043 439.69 217.043 438.11V432.59C217.043 431.01 217.473 429.8 218.333 428.96C219.193 428.12 220.413 427.7 221.993 427.7H224.363C225.943 427.7 227.163 428.12 228.023 428.96C228.883 429.8 229.313 431.01 229.313 432.59V436.4C229.313 436.82 229.103 437.03 228.683 437.03H221.153C220.913 437.03 220.793 437.14 220.793 437.36V438.02C220.793 438.64 220.923 439.09 221.183 439.37C221.463 439.63 221.923 439.76 222.563 439.76H228.623C229.043 439.76 229.253 439.98 229.253 440.42V442.4C229.253 442.62 229.203 442.78 229.103 442.88C229.023 442.96 228.863 443 228.623 443ZM221.153 434.48H225.233C225.453 434.48 225.563 434.37 225.563 434.15V432.71C225.563 432.07 225.433 431.62 225.173 431.36C224.913 431.1 224.463 430.97 223.823 430.97H222.563C221.923 430.97 221.473 431.1 221.213 431.36C220.953 431.62 220.823 432.07 220.823 432.71V434.15C220.823 434.37 220.933 434.48 221.153 434.48ZM235.348 443H232.798C232.378 443 232.168 442.79 232.168 442.37V428.33C232.168 427.91 232.378 427.7 232.798 427.7H235.348C235.768 427.7 235.978 427.91 235.978 428.33V429.35H236.098C236.318 428.81 236.708 428.4 237.268 428.12C237.828 427.84 238.418 427.7 239.038 427.7H240.118C240.518 427.7 240.718 427.91 240.718 428.33V430.4C240.718 430.64 240.668 430.81 240.568 430.91C240.488 430.99 240.338 431.02 240.118 431H238.048C236.668 431 235.978 431.78 235.978 433.34V442.37C235.978 442.79 235.768 443 235.348 443ZM247.067 439.7H250.337C250.977 439.7 251.427 439.57 251.687 439.31C251.967 439.03 252.107 438.57 252.107 437.93V428.78C252.107 428.14 251.967 427.69 251.687 427.43C251.427 427.15 250.977 427.01 250.337 427.01H247.067C246.847 427.01 246.737 427.12 246.737 427.34V439.37C246.737 439.59 246.847 439.7 247.067 439.7ZM242.927 442.37V424.34C242.927 423.92 243.137 423.71 243.557 423.71H250.967C252.527 423.71 253.737 424.14 254.597 425C255.477 425.84 255.917 427.04 255.917 428.6V438.11C255.917 439.67 255.477 440.88 254.597 441.74C253.737 442.58 252.527 443 250.967 443H243.557C243.137 443 242.927 442.79 242.927 442.37ZM270.489 443H263.859C262.279 443 261.059 442.58 260.199 441.74C259.339 440.9 258.909 439.69 258.909 438.11V432.59C258.909 431.01 259.339 429.8 260.199 428.96C261.059 428.12 262.279 427.7 263.859 427.7H266.229C267.809 427.7 269.029 428.12 269.889 428.96C270.749 429.8 271.179 431.01 271.179 432.59V436.4C271.179 436.82 270.969 437.03 270.549 437.03H263.019C262.779 437.03 262.659 437.14 262.659 437.36V438.02C262.659 438.64 262.789 439.09 263.049 439.37C263.329 439.63 263.789 439.76 264.429 439.76H270.489C270.909 439.76 271.119 439.98 271.119 440.42V442.4C271.119 442.62 271.069 442.78 270.969 442.88C270.889 442.96 270.729 443 270.489 443ZM263.019 434.48H267.099C267.319 434.48 267.429 434.37 267.429 434.15V432.71C267.429 432.07 267.299 431.62 267.039 431.36C266.779 431.1 266.329 430.97 265.689 430.97H264.429C263.789 430.97 263.339 431.1 263.079 431.36C262.819 431.62 262.689 432.07 262.689 432.71V434.15C262.689 434.37 262.799 434.48 263.019 434.48ZM279.583 427.7H281.983C282.223 427.7 282.383 427.75 282.463 427.85C282.563 427.93 282.613 428.08 282.613 428.3V430.37C282.613 430.79 282.403 431 281.983 431H279.583C279.363 431 279.253 431.11 279.253 431.33V442.37C279.253 442.79 279.033 443 278.593 443H276.073C275.653 443 275.443 442.79 275.443 442.37V431.33C275.443 431.11 275.323 431 275.083 431H273.703C273.283 431 273.073 430.79 273.073 430.37V428.3C273.073 428.06 273.113 427.9 273.193 427.82C273.293 427.74 273.463 427.7 273.703 427.7H275.083C275.323 427.7 275.443 427.59 275.443 427.37V426.8C275.443 425.22 275.853 424.01 276.673 423.17C277.513 422.33 278.723 421.91 280.303 421.91H282.013C282.253 421.91 282.413 421.96 282.493 422.06C282.573 422.14 282.613 422.29 282.613 422.51V424.58C282.613 425 282.413 425.21 282.013 425.21H280.903C280.263 425.21 279.823 425.35 279.583 425.63C279.363 425.89 279.253 426.34 279.253 426.98V427.37C279.253 427.59 279.363 427.7 279.583 427.7ZM295.918 443H289.288C287.708 443 286.488 442.58 285.628 441.74C284.768 440.9 284.338 439.69 284.338 438.11V432.59C284.338 431.01 284.768 429.8 285.628 428.96C286.488 428.12 287.708 427.7 289.288 427.7H291.658C293.238 427.7 294.458 428.12 295.318 428.96C296.178 429.8 296.608 431.01 296.608 432.59V436.4C296.608 436.82 296.398 437.03 295.978 437.03H288.448C288.208 437.03 288.088 437.14 288.088 437.36V438.02C288.088 438.64 288.218 439.09 288.478 439.37C288.758 439.63 289.218 439.76 289.858 439.76H295.918C296.338 439.76 296.548 439.98 296.548 440.42V442.4C296.548 442.62 296.498 442.78 296.398 442.88C296.318 442.96 296.158 443 295.918 443ZM288.448 434.48H292.528C292.748 434.48 292.858 434.37 292.858 434.15V432.71C292.858 432.07 292.728 431.62 292.468 431.36C292.208 431.1 291.758 430.97 291.118 430.97H289.858C289.218 430.97 288.768 431.1 288.508 431.36C288.248 431.62 288.118 432.07 288.118 432.71V434.15C288.118 434.37 288.228 434.48 288.448 434.48ZM302.643 443H300.093C299.673 443 299.463 442.79 299.463 442.37V428.33C299.463 427.91 299.673 427.7 300.093 427.7H302.643C303.063 427.7 303.273 427.91 303.273 428.33V429.32H303.393C303.833 428.24 304.813 427.7 306.333 427.7H307.293C310.433 427.7 312.003 429.33 312.003 432.59V442.37C312.003 442.79 311.783 443 311.343 443H308.823C308.403 443 308.193 442.79 308.193 442.37V432.77C308.193 432.13 308.053 431.68 307.773 431.42C307.513 431.14 307.063 431 306.423 431H305.343C303.963 431 303.273 431.76 303.273 433.28V442.37C303.273 442.79 303.063 443 302.643 443ZM320.776 443H319.546C318.006 443 316.836 442.58 316.036 441.74C315.256 440.9 314.866 439.69 314.866 438.11V432.59C314.866 431.01 315.256 429.8 316.036 428.96C316.836 428.12 318.006 427.7 319.546 427.7H320.776C321.396 427.7 321.986 427.84 322.546 428.12C323.106 428.38 323.496 428.78 323.716 429.32H323.836V422.54C323.836 422.12 324.046 421.91 324.466 421.91H327.016C327.436 421.91 327.646 422.12 327.646 422.54V442.37C327.646 442.79 327.436 443 327.016 443H324.466C324.046 443 323.836 442.79 323.836 442.37V441.38H323.716C323.496 441.92 323.106 442.33 322.546 442.61C321.986 442.87 321.396 443 320.776 443ZM323.836 437.42V433.28C323.836 431.76 323.146 431 321.766 431H320.416C319.776 431 319.326 431.14 319.066 431.42C318.806 431.68 318.676 432.13 318.676 432.77V437.93C318.676 438.57 318.806 439.03 319.066 439.31C319.326 439.57 319.776 439.7 320.416 439.7H321.766C323.146 439.7 323.836 438.94 323.836 437.42ZM342.237 443H335.607C334.027 443 332.807 442.58 331.947 441.74C331.087 440.9 330.657 439.69 330.657 438.11V432.59C330.657 431.01 331.087 429.8 331.947 428.96C332.807 428.12 334.027 427.7 335.607 427.7H337.977C339.557 427.7 340.777 428.12 341.637 428.96C342.497 429.8 342.927 431.01 342.927 432.59V436.4C342.927 436.82 342.717 437.03 342.297 437.03H334.767C334.527 437.03 334.407 437.14 334.407 437.36V438.02C334.407 438.64 334.537 439.09 334.797 439.37C335.077 439.63 335.537 439.76 336.177 439.76H342.237C342.657 439.76 342.867 439.98 342.867 440.42V442.4C342.867 442.62 342.817 442.78 342.717 442.88C342.637 442.96 342.477 443 342.237 443ZM334.767 434.48H338.847C339.067 434.48 339.177 434.37 339.177 434.15V432.71C339.177 432.07 339.047 431.62 338.787 431.36C338.527 431.1 338.077 430.97 337.437 430.97H336.177C335.537 430.97 335.087 431.1 334.827 431.36C334.567 431.62 334.437 432.07 334.437 432.71V434.15C334.437 434.37 334.547 434.48 334.767 434.48ZM348.961 443H346.411C345.991 443 345.781 442.79 345.781 442.37V428.33C345.781 427.91 345.991 427.7 346.411 427.7H348.961C349.381 427.7 349.591 427.91 349.591 428.33V429.35H349.711C349.931 428.81 350.321 428.4 350.881 428.12C351.441 427.84 352.031 427.7 352.651 427.7H353.731C354.131 427.7 354.331 427.91 354.331 428.33V430.4C354.331 430.64 354.281 430.81 354.181 430.91C354.101 430.99 353.951 431.02 353.731 431H351.661C350.281 431 349.591 431.78 349.591 433.34V442.37C349.591 442.79 349.381 443 348.961 443Z" fill="white"/>
<path d="M172.45 406H162.58C162.16 406 161.95 405.79 161.95 405.37V387.34C161.95 386.92 162.16 386.71 162.58 386.71H165.13C165.55 386.71 165.76 386.92 165.76 387.34V402.34C165.76 402.56 165.88 402.67 166.12 402.67H172.45C172.85 402.67 173.05 402.89 173.05 403.33V405.37C173.05 405.79 172.85 406 172.45 406ZM186.407 406H179.777C178.197 406 176.977 405.58 176.117 404.74C175.257 403.9 174.827 402.69 174.827 401.11V395.59C174.827 394.01 175.257 392.8 176.117 391.96C176.977 391.12 178.197 390.7 179.777 390.7H182.147C183.727 390.7 184.947 391.12 185.807 391.96C186.667 392.8 187.097 394.01 187.097 395.59V399.4C187.097 399.82 186.887 400.03 186.467 400.03H178.937C178.697 400.03 178.577 400.14 178.577 400.36V401.02C178.577 401.64 178.707 402.09 178.967 402.37C179.247 402.63 179.707 402.76 180.347 402.76H186.407C186.827 402.76 187.037 402.98 187.037 403.42V405.4C187.037 405.62 186.987 405.78 186.887 405.88C186.807 405.96 186.647 406 186.407 406ZM178.937 397.48H183.017C183.237 397.48 183.347 397.37 183.347 397.15V395.71C183.347 395.07 183.217 394.62 182.957 394.36C182.697 394.1 182.247 393.97 181.607 393.97H180.347C179.707 393.97 179.257 394.1 178.997 394.36C178.737 394.62 178.607 395.07 178.607 395.71V397.15C178.607 397.37 178.717 397.48 178.937 397.48ZM189.291 390.7H191.931C192.331 390.7 192.571 390.91 192.651 391.33L195.231 402.61H195.441L197.961 391.33C198.041 390.91 198.291 390.7 198.711 390.7H201.351C201.771 390.7 201.921 390.91 201.801 391.33L198.021 405.34C197.941 405.78 197.671 406 197.211 406H193.401C192.981 406 192.711 405.78 192.591 405.34L188.841 391.33C188.721 390.91 188.871 390.7 189.291 390.7ZM215.264 406H208.634C207.054 406 205.834 405.58 204.974 404.74C204.114 403.9 203.684 402.69 203.684 401.11V395.59C203.684 394.01 204.114 392.8 204.974 391.96C205.834 391.12 207.054 390.7 208.634 390.7H211.004C212.584 390.7 213.804 391.12 214.664 391.96C215.524 392.8 215.954 394.01 215.954 395.59V399.4C215.954 399.82 215.744 400.03 215.324 400.03H207.794C207.554 400.03 207.434 400.14 207.434 400.36V401.02C207.434 401.64 207.564 402.09 207.824 402.37C208.104 402.63 208.564 402.76 209.204 402.76H215.264C215.684 402.76 215.894 402.98 215.894 403.42V405.4C215.894 405.62 215.844 405.78 215.744 405.88C215.664 405.96 215.504 406 215.264 406ZM207.794 397.48H211.874C212.094 397.48 212.204 397.37 212.204 397.15V395.71C212.204 395.07 212.074 394.62 211.814 394.36C211.554 394.1 211.104 393.97 210.464 393.97H209.204C208.564 393.97 208.114 394.1 207.854 394.36C207.594 394.62 207.464 395.07 207.464 395.71V397.15C207.464 397.37 207.574 397.48 207.794 397.48ZM229.608 406H219.738C219.318 406 219.108 405.79 219.108 405.37V387.34C219.108 386.92 219.318 386.71 219.738 386.71H222.288C222.708 386.71 222.918 386.92 222.918 387.34V402.34C222.918 402.56 223.038 402.67 223.278 402.67H229.608C230.008 402.67 230.208 402.89 230.208 403.33V405.37C230.208 405.79 230.008 406 229.608 406ZM238.165 397.96H232.465C232.045 397.96 231.835 397.75 231.835 397.33V395.56C231.835 395.12 232.045 394.9 232.465 394.9H238.165C238.585 394.9 238.795 395.12 238.795 395.56V397.33C238.795 397.75 238.585 397.96 238.165 397.96ZM240.67 392.08V389.62C240.67 389.28 240.82 389.02 241.12 388.84L243.85 387.13C244.31 386.85 244.7 386.71 245.02 386.71H247.42C247.84 386.71 248.05 386.92 248.05 387.34V405.37C248.05 405.61 248 405.78 247.9 405.88C247.82 405.96 247.67 406 247.45 406H244.87C244.45 406 244.24 405.79 244.24 405.37V390.76L241.3 392.44C240.88 392.62 240.67 392.5 240.67 392.08Z" fill="white"/>
</g>
<defs>
<linearGradient id="paint0_linear_48_1665" x1="0" y1="297.65" x2="409.2" y2="297.65" gradientUnits="userSpaceOnUse">
<stop offset="0.04" stop-color="#2563EB"/>
<stop offset="0.91" stop-color="#1E40AF"/>
</linearGradient>
<linearGradient id="paint1_linear_48_1665" x1="73.8984" y1="356" x2="335.898" y2="356" gradientUnits="userSpaceOnUse">
<stop offset="0.04" stop-color="#2563EB"/>
<stop offset="0.91" stop-color="#1E40AF"/>
</linearGradient>
<linearGradient id="paint2_linear_48_1665" x1="73.8984" y1="238.5" x2="335.898" y2="238.5" gradientUnits="userSpaceOnUse">
<stop offset="0.04" stop-color="#2563EB"/>
<stop offset="0.91" stop-color="#1E40AF"/>
</linearGradient>
<linearGradient id="paint3_linear_48_1665" x1="137.902" y1="148.999" x2="270.901" y2="148.999" gradientUnits="userSpaceOnUse">
<stop offset="0.04" stop-color="#2563EB"/>
<stop offset="0.91" stop-color="#1E40AF"/>
</linearGradient>
<linearGradient id="paint4_linear_48_1665" x1="74.0042" y1="296.999" x2="257.004" y2="296.999" gradientUnits="userSpaceOnUse">
<stop offset="0.04" stop-color="#2563EB"/>
<stop offset="0.91" stop-color="#1E40AF"/>
</linearGradient>
<linearGradient id="paint5_linear_48_1665" x1="282.001" y1="296.999" x2="320.001" y2="296.999" gradientUnits="userSpaceOnUse">
<stop offset="0.04" stop-color="#2563EB"/>
<stop offset="0.91" stop-color="#1E40AF"/>
</linearGradient>
<linearGradient id="paint6_linear_48_1665" x1="172.501" y1="292.015" x2="223.501" y2="292.015" gradientUnits="userSpaceOnUse">
<stop offset="0.04" stop-color="#2563EB"/>
<stop offset="0.91" stop-color="#1E40AF"/>
</linearGradient>
<clipPath id="clip0_48_1665">
<rect width="409" height="595" fill="white"/>
</clipPath>
</defs>
</svg>
